Coordinates
version=1
nRows=19
nColumns=33
inDegrees=yes

Units are S.I. units (second, meters, Newtons, ...)
Angles are in degrees.

endheader
time	ground_thorax_rot_x	ground_thorax_rot_y	ground_thorax_rot_z	ground_thorax_tx	ground_thorax_ty	ground_thorax_tz	clav_prot_r	clav_elev_r	scapula_abduction_r	scapula_elevation_r	scapula_upward_rot_r	scapula_winging_r	shoulder_elv_r	plane_of_elev_r	axial_rot_r	elbow_flexion_r	pro_sup_r	wrist_flex_r	wrist_dev_r	clav_prot_l	clav_elev_l	scapula_abduction_l	scapula_elevation_l	scapula_upward_rot_l	scapula_winging_l	shoulder_elv_l	plane_of_elev_l	axial_rot_l	elbow_flexion_l	pro_sup_l	wrist_flex_l	wrist_dev_l
      0.13000000	      2.51243654	     -2.49560653	      1.12928919	     -0.16108626	      0.98676869	      0.00303741	     -6.76668574	      5.51991183	     -6.80381729	      8.47182972	      9.58675026	     -2.82076243	     42.95975656	    -40.14906360	     45.13766268	     74.14472527	     -2.09196540	     34.88869680	    -10.30336885	     -8.09638572	     -1.93594357	     11.67881223	     -5.74297154	     -3.95237443	     -2.37321926	     40.85325537	    -43.02745842	     -8.58414625	     74.15905931	     21.66879686	     -5.25824431	    -24.99999983
      0.14000000	      1.60880042	     -1.98046681	      0.98596300	     -0.16075353	      0.98694432	      0.00245299	     -7.53764874	      3.67256367	     -7.00816445	      6.49671573	     10.31924278	     -2.86807104	     43.11161840	    -42.17774038	     45.91320670	     74.82686007	      1.25760973	     32.24872201	    -10.54673981	     -7.93989485	     -0.53009901	     11.33458848	     -6.57361169	     -2.76177904	     -1.85666043	     39.94528984	    -42.02481387	     -9.44090977	     72.98603006	     19.14137434	     -6.78587622	    -24.99999983
      0.15000000	      1.83157828	     -1.96868280	      0.91425160	     -0.16093974	      0.98695608	      0.00248397	     -7.41616998	      3.87762073	     -7.08031035	      6.81758866	      9.96561441	     -2.78530609	     42.96953116	    -41.77244595	     44.99146362	     74.60857662	      1.65463329	     31.81530762	    -10.68656679	     -7.97618058	     -1.06454413	     11.23096897	     -6.07212352	     -2.75384632	     -1.91004689	     39.73636035	    -42.42184396	     -9.65861171	     72.80244672	     18.92109964	     -7.12419111	    -24.99999983
      0.16000000	      1.82084741	     -1.97855718	      0.98438069	     -0.16107105	      0.98662928	      0.00244057	     -7.42936813	      3.81474121	     -7.09253270	      6.76910070	      9.94218623	     -2.77134932	     42.91227696	    -41.73881234	     44.96774096	     74.60624712	      1.65893680	     31.80707224	    -10.68608868	     -7.97155045	     -1.10517671	     11.25042871	     -6.07268566	     -2.84749911	     -1.93572837	     39.62729972	    -42.43834797	     -9.70652151	     72.76957159	     18.92434369	     -7.11781239	    -24.99999983
      0.17000000	      1.81396184	     -1.95999633	      1.16460220	     -0.16108099	      0.98699726	      0.00236815	     -7.52358849	      3.62676773	     -7.25547802	      6.63657980	      9.83565513	     -2.70540782	     42.83477995	    -41.72624478	     44.60145597	     74.31022079	      1.66424461	     31.69384875	    -10.70745568	     -8.02821878	     -1.23272691	     11.36069903	     -5.99826716	     -2.96188748	     -2.00167685	     39.51476415	    -42.44751881	     -9.61431281	     72.39648065	     18.88162153	     -7.12274979	    -24.99999983
      0.18000000	      1.77504633	     -1.90348087	      1.07933567	     -0.16107664	      0.98709980	      0.00224136	     -7.62446646	      3.39836015	     -7.44741419	      6.48915500	      9.67352095	     -2.61432124	     42.66594729	    -41.57464594	     43.91282071	     74.19505927	      1.68356251	     31.57470217	    -10.73122084	     -8.08020723	     -1.39456432	     11.42956334	     -5.86836059	     -3.01713383	     -2.04981778	     39.42432721	    -42.27022334	     -9.44642844	     72.22649648	     18.75468401	     -7.16544343	    -24.99999983
      0.19000000	      1.77535652	     -1.89312667	      1.18630068	     -0.16133294	      0.98682784	      0.00216255	     -7.63637034	      3.33521161	     -7.43889456	      6.42792678	      9.68239217	     -2.61578529	     42.62866981	    -41.49693729	     43.85467451	     74.23031732	      1.68359930	     31.57567566	    -10.73372300	     -8.07696284	     -1.43028364	     11.43141914	     -5.85326806	     -3.06217126	     -2.06348883	     39.35669631	    -42.24295720	     -9.47152254	     72.24487737	     18.75011049	     -7.16506931	    -24.99999983
      0.20000000	      1.72714341	     -1.84285708	      1.14331250	     -0.16105237	      0.98706717	      0.00205960	     -7.78684271	      3.07513899	     -7.73625068	      6.26725858	      9.47546457	     -2.49192487	     42.43592478	    -41.35541629	     42.99143405	     74.12167801	      1.72180333	     31.52276464	    -10.80582005	     -8.18230199	     -1.59812730	     11.60813319	     -5.72914130	     -3.14902986	     -2.13869652	     39.26558570	    -42.07840415	     -9.09066949	     72.12906011	     18.59496935	     -7.27363269	    -24.99999983
      0.21000000	      1.65913010	     -1.81602529	      0.87649598	     -0.16121740	      0.98695759	      0.00202450	     -7.76255833	      2.84715481	     -7.81283978	      6.19509839	      9.12085858	     -2.37048997	     42.22611651	    -40.96145062	     41.95078047	     74.08024922	      1.92787869	     31.53765172	    -10.88566952	     -8.11146470	     -1.73946733	     11.48952019	     -5.65010333	     -3.27489705	     -2.16707704	     39.24528792	    -41.76196521	     -8.74041575	     72.12032536	     18.36567485	     -7.46226079	    -24.99999983
      0.22000000	      1.66012477	     -1.78556272	      0.98466829	     -0.16131067	      0.98671706	      0.00184709	     -7.76438493	      2.80640584	     -7.79417095	      6.15494312	      9.13073817	     -2.37386778	     42.20281454	    -40.89947091	     41.92282944	     74.11208813	      1.93133599	     31.54349796	    -10.88796256	     -8.11217893	     -1.76474183	     11.48976278	     -5.63435498	     -3.29327745	     -2.17315945	     39.21128774	    -41.73593976	     -8.74875267	     72.13688692	     18.36299439	     -7.46519554	    -24.99999983
      0.23000000	      1.66782316	     -1.78947939	      1.10509332	     -0.16147257	      0.98658051	      0.00171608	     -7.77455318	      2.75345878	     -7.79602673	      6.10860592	      9.12383941	     -2.36905109	     42.16054956	    -40.84665722	     41.88325598	     74.14465689	      1.93551597	     31.55106423	    -10.89379676	     -8.11393244	     -1.80455750	     11.49194633	     -5.60720254	     -3.31890825	     -2.18359314	     39.16276714	    -41.69265281	     -8.75334822	     72.15726956	     18.35899412	     -7.47076867	    -24.99999983
      0.24000000	      1.61075329	     -1.73223171	      0.77583624	     -0.16132430	      0.98691939	      0.00165861	     -7.76473697	      2.38969058	     -7.99370629	      6.00818062	      8.51849194	     -2.14822727	     41.97295815	    -40.51416923	     40.37211666	     74.00619071	      2.32244077	     31.80577551	    -11.27789513	     -8.03258385	     -2.07260009	     11.40192491	     -5.49513002	     -3.65322001	     -2.28187245	     39.14659068	    -41.21813571	     -7.98413783	     71.98190695	     18.07560969	     -7.90784949	    -24.99999983
      0.25000000	      1.60504546	     -1.73080142	      0.86827637	     -0.16133617	      0.98671117	      0.00147089	     -7.76455254	      2.36108760	     -7.98876642	      5.98667018	      8.50616182	     -2.14616265	     41.93924528	    -40.48109282	     40.36048465	     74.03737397	      2.32942925	     31.81421784	    -11.28134156	     -8.03021562	     -2.10061328	     11.39664853	     -5.47527251	     -3.66888437	     -2.29097846	     39.11562824	    -41.18578838	     -7.99219214	     71.99832528	     18.07278184	     -7.91295615	    -24.99999983
      0.26000000	      1.60418616	     -1.74266972	      0.94949649	     -0.16128674	      0.98655468	      0.00131261	     -7.76796377	      2.32718262	     -7.99554491	      5.96418410	      8.48368272	     -2.13541748	     41.89590924	    -40.45689649	     40.34148526	     74.06730289	      2.33549471	     31.82338025	    -11.28791289	     -8.02979788	     -2.13407965	     11.39470931	     -5.45392166	     -3.69287275	     -2.29623583	     39.07922701	    -41.15193337	     -7.99619504	     72.00834804	     18.06880748	     -7.91971353	    -24.99999983
      0.27000000	      1.46514568	     -1.53743569	      1.16468635	     -0.16189947	      0.98631399	      0.00128944	     -7.17573815	      2.24827146	     -7.77931411	      6.51347080	      6.90278232	     -1.77707979	     41.85393638	    -40.29643312	     38.18013941	     74.12226697	      3.37325044	     32.67163663	    -12.44937317	     -7.27313897	     -2.02197064	     10.47359502	     -6.01635716	     -4.76187377	     -2.33716844	     39.30393029	    -40.63992291	     -7.02887504	     71.92298897	     17.17664320	     -9.28824331	    -24.99999983
      0.28000000	      1.45009824	     -1.55803371	      1.22017689	     -0.16179273	      0.98614223	      0.00104569	     -7.17896929	      2.22867763	     -7.77856392	      6.49632778	      6.89948315	     -1.77680969	     41.83255790	    -40.27427514	     38.17706144	     74.14212087	      3.37498241	     32.67428908	    -12.45051294	     -7.27233160	     -2.05462591	     10.46507730	     -5.98828299	     -4.76757741	     -2.34128526	     39.28073084	    -40.60055998	     -7.03902648	     71.92939837	     17.17514263	     -9.29059815	    -24.99999983
      0.29000000	      1.44346420	     -1.57332132	      1.28654047	     -0.16176880	      0.98607657	      0.00082533	     -7.18414452	      2.19442100	     -7.77682795	      6.46561410	      6.89775584	     -1.77265200	     41.79959314	    -40.23567802	     38.16454404	     74.17666647	      3.37437928	     32.67848299	    -12.45383131	     -7.27220489	     -2.09277104	     10.45875793	     -5.95701556	     -4.77856805	     -2.34716487	     39.25187249	    -40.55745959	     -7.04833382	     71.93363841	     17.17186694	     -9.29430473	    -24.99999983
      0.30000000	      1.45267698	     -1.57774550	      0.99021494	     -0.16144101	      0.98623713	      0.00081928	     -7.30492242	      1.98093870	     -7.92858106	      6.27498890	      6.88041259	     -1.72080329	     41.69638380	    -40.09930672	     37.71019192	     74.36788494	      3.29465774	     32.67128951	    -12.61286331	     -7.34125242	     -2.34179051	     10.52535124	     -5.73320961	     -4.80632299	     -2.40665977	     39.26561267	    -40.28180918	     -6.80406439	     71.73524454	     16.99204605	     -9.46868653	    -24.99999983
      0.31000000	      1.43361251	     -1.59858356	      1.05998422	     -0.16135284	      0.98617736	      0.00050011	     -7.30950881	      1.96373433	     -7.92002997	      6.25204529	      6.89751707	     -1.72536871	     41.69607139	    -40.06508674	     37.69001414	     74.38691445	      3.29092746	     32.67236174	    -12.61742638	     -7.33572298	     -2.36893473	     10.50804043	     -5.70793371	     -4.80607458	     -2.40777384	     39.25303029	    -40.23929474	     -6.81760849	     71.75672148	     16.98705691	     -9.47195025	    -24.99999983
